<!--?xml version="1.0" standalone="no"?-->
              <svg id="sw-js-blob-svg" viewBox="0 0 100 100" xmlns="http://www.w3.org/2000/svg" version="1.1">
                    <defs> 
                        <linearGradient id="sw-gradient" x1="0" x2="1" y1="1" y2="0">
                            <stop id="stop1" stop-color="rgba(248, 117, 55, 1)" offset="0%"></stop>
                            <stop id="stop2" stop-color="rgba(251, 168, 31, 1)" offset="100%"></stop>
                        </linearGradient>
                    </defs>
                <path fill="none" d="M12.7,-13.8C19,-9.8,28.4,-8.3,30.5,-4.2C32.7,-0.1,27.6,6.4,23.6,14C19.7,21.6,16.9,30.2,12.7,29.3C8.5,28.4,2.9,18,-6.5,15.6C-15.9,13.2,-29.1,18.8,-33.9,16.6C-38.8,14.4,-35.3,4.4,-30.3,-2.1C-25.3,-8.6,-18.8,-11.6,-13.5,-15.8C-8.2,-19.9,-4.1,-25.1,-0.5,-24.6C3.2,-24.1,6.4,-17.8,12.7,-13.8Z" width="100%" height="100%" transform="translate(50 50)" stroke-width="1" style="transition: all 0.3s ease 0s;" stroke="url(#sw-gradient)"></path>
              </svg>