<!--?xml version="1.0" standalone="no"?-->
              <svg id="sw-js-blob-svg" viewBox="0 0 100 100" xmlns="http://www.w3.org/2000/svg" version="1.1">
                    <defs> 
                        <linearGradient id="sw-gradient" x1="0" x2="1" y1="1" y2="0">
                            <stop id="stop1" stop-color="rgba(104.488, 73.726, 203.843, 1)" offset="0%"></stop>
                            <stop id="stop2" stop-color="rgba(12.536, 28.8, 92.281, 1)" offset="100%"></stop>
                        </linearGradient>
                    </defs>
                <path fill="url(#sw-gradient)" d="M27.3,-31.6C33.7,-27.1,36.3,-17,38.2,-6.6C40.1,3.7,41.5,14.2,37.2,21.3C32.9,28.4,23,32.1,14,33C5,34,-3,32.1,-11.7,29.9C-20.4,27.7,-29.7,25.1,-35,18.8C-40.3,12.5,-41.6,2.5,-39.5,-6.5C-37.3,-15.5,-31.8,-23.4,-24.6,-27.7C-17.5,-32.1,-8.7,-33,0.8,-34C10.4,-35,20.8,-36.1,27.3,-31.6Z" width="100%" height="100%" transform="translate(50 50)" stroke-width="0" style="transition: all 0.3s ease 0s;"></path>
              </svg>