<!--?xml version="1.0" standalone="no"?-->
              <svg id="sw-js-blob-svg" viewBox="0 0 100 100" xmlns="http://www.w3.org/2000/svg" version="1.1">
                    <defs> 
                        <linearGradient id="sw-gradient" x1="0" x2="1" y1="1" y2="0">
                            <stop id="stop1" stop-color="rgba(242.549, 242.549, 242.549, 1)" offset="0%"></stop>
                            <stop id="stop2" stop-color="rgba(255, 255, 255, 0.9)" offset="100%"></stop>
                        </linearGradient>
                    </defs>
                <path fill="none" d="M24.6,-27.2C32,-23.1,38.2,-15.5,37.8,-8C37.5,-0.6,30.8,6.6,25.2,13C19.7,19.4,15.4,25,8.7,30.2C2,35.4,-7.2,40.2,-13.4,37.6C-19.5,35,-22.6,24.9,-24,16.7C-25.4,8.5,-25,2.1,-23.3,-3.4C-21.5,-8.9,-18.3,-13.5,-14.2,-18.2C-10.1,-22.8,-5.1,-27.6,1.8,-29.7C8.6,-31.9,17.2,-31.3,24.6,-27.2Z" width="100%" height="100%" transform="translate(50 50)" stroke-width="1" style="transition: all 0.3s ease 0s;" stroke="url(#sw-gradient)"></path>
              </svg>