<!--?xml version="1.0" standalone="no"?-->
              <svg id="sw-js-blob-svg" viewBox="0 0 100 100" xmlns="http://www.w3.org/2000/svg" version="1.1">
                    <defs> 
                        <linearGradient id="sw-gradient" x1="0" x2="1" y1="1" y2="0">
                            <stop id="stop1" stop-color="rgba(248, 117, 55, 1)" offset="0%"></stop>
                            <stop id="stop2" stop-color="rgba(251, 168, 31, 1)" offset="100%"></stop>
                        </linearGradient>
                    </defs>
                <path fill="none" d="M12.1,-14.4C19.9,-8,33.2,-8.1,38.9,-2.9C44.6,2.4,42.6,12.9,35,14.7C27.4,16.4,14.1,9.3,4.7,12.5C-4.7,15.7,-10.1,29.2,-12.1,29.9C-14,30.6,-12.5,18.4,-12.2,10.9C-11.9,3.4,-13,0.5,-13.8,-3.8C-14.6,-8,-15.3,-13.5,-13,-20.9C-10.6,-28.2,-5.3,-37.5,-1.6,-35.6C2.2,-33.7,4.4,-20.8,12.1,-14.4Z" width="100%" height="100%" transform="translate(50 50)" stroke-width="1" style="transition: all 0.3s ease 0s;" stroke="url(#sw-gradient)"></path>
              </svg>